<svg xmlns="http://www.w3.org/2000/svg" width="64" height="64" viewBox="0 0 64 64" fill="none">
  <rect width="64" height="64" rx="16" fill="#F472B6"/>
  <path d="M32 12c-5 0-9 3.5-9 8s2 4.5 3 5.5V30a6 6 0 0012 0v-4.5c1-1 3-1 3-5.5s-4-8-9-8z" fill="white"/>
  <circle cx="28" cy="19" r="2" fill="#F472B6"/>
  <circle cx="36" cy="19" r="2" fill="#F472B6"/>
  <path d="M25 36c0 2 3 4 7 4s7-2 7-4" stroke="white" stroke-width="2" stroke-linecap="round"/>
  <path d="M10 32c2-4 6-6 10-6" stroke="#FBBF24" stroke-width="2.5" stroke-linecap="round"/>
  <path d="M54 32c-2-4-6-6-10-6" stroke="#FBBF24" stroke-width="2.5" stroke-linecap="round"/>
</svg>
